HIERARCHY
ROOT Joint1
{
	OFFSET 0.000000 0.000000 0.000000
	CHANNELS 6 Xposition Yposition Zposition Xrotation Yrotation Zrotation
	JOINT Joint2
	{
		OFFSET -0.000000 0.000000 1.456275
		CHANNELS 6 Xposition Yposition Zposition Xrotation Yrotation Zrotation
		JOINT Joint3
		{
			OFFSET -0.000000 0.000002 1.471446
			CHANNELS 6 Xposition Yposition Zposition Xrotation Yrotation Zrotation
			JOINT Joint4
			{
				OFFSET 0.625745 0.000000 0.917755
				CHANNELS 6 Xposition Yposition Zposition Xrotation Yrotation Zrotation
				JOINT Joint5
				{
					OFFSET -0.629534 0.000001 0.940221
					CHANNELS 6 Xposition Yposition Zposition Xrotation Yrotation Zrotation
					JOINT Joint6
					{
						OFFSET -0.000001 0.113772 1.960660
						CHANNELS 6 Xposition Yposition Zposition Xrotation Yrotation Zrotation
						JOINT Joint7
						{
							OFFSET -0.669733 -0.113771 0.388340
							CHANNELS 6 Xposition Yposition Zposition Xrotation Yrotation Zrotation
							End Site
							{
								OFFSET 0.005509 0.005509 0.438980
							}
						}
					}
				}
			}
		}
	}
}
MOTION
Frames: 22
Frame Time: 0.041667
0.000000 0.000000 0.000000 -0.000000 1.019410 -76.230498 -0.000000 0.000000 1.456275 0.000000 18.044509 0.000001 -0.000000 0.000002 1.471445 -0.000001 -1.133463 -33.829223 0.625745 0.000000 0.917755 0.000002 75.463338 0.000003 -0.629534 0.000001 0.940221 -0.000000 1.709737 53.019395 -0.000001 0.113772 1.960661 -88.303896 69.190212 -0.000007 -0.669733 -0.113771 0.388340 0.100343 3.170355 82.617319 
0.000000 0.000000 0.000000 -0.000000 1.019410 -74.056784 -0.000000 0.000000 1.456275 -0.000000 16.247010 -0.000000 -0.000000 0.000002 1.471446 -0.000001 -1.133463 -32.865364 0.625745 0.000000 0.917755 -0.000005 77.161876 0.000005 -0.629534 0.000001 0.940221 -0.000003 1.709737 51.507023 -0.000001 0.113772 1.960661 -88.303889 69.782895 -0.000007 -0.669733 -0.113771 0.388340 0.083888 3.191105 84.109695 
0.000000 0.000000 0.000000 -0.000000 1.019410 -72.218930 -0.000000 0.000000 1.456275 -0.000000 14.727232 0.000001 -0.000000 0.000002 1.471445 -0.000001 -1.133461 -32.050427 0.625745 0.000000 0.917755 -0.000007 78.597985 0.000007 -0.629533 0.000001 0.940221 0.000001 1.709737 50.228330 -0.000001 0.113772 1.960660 -88.303882 70.284013 -0.000007 -0.669733 -0.113771 0.388340 0.069561 3.208314 85.371511 
0.000000 0.000000 0.000000 -0.000000 1.019410 -70.717491 -0.000000 -0.000000 1.456275 0.000000 13.485650 -0.000001 -0.000000 0.000002 1.471446 -0.000001 -1.133463 -31.384661 0.625745 0.000000 0.917755 -0.000004 79.771200 0.000005 -0.629534 0.000001 0.940221 -0.000000 1.709737 49.183700 -0.000001 0.113772 1.960660 -88.303896 70.693400 -0.000006 -0.669733 -0.113771 0.388340 0.057575 3.222136 86.402371 
0.000000 0.000000 0.000000 -0.000000 1.019410 -68.207362 -0.000000 -0.000000 1.456275 -0.000001 11.409954 -0.000000 -0.000000 0.000002 1.471446 0.000000 -1.133462 -30.271624 0.625745 0.000000 0.917755 -0.000012 81.732625 0.000007 -0.629534 0.000001 0.940221 -0.000002 1.709736 47.437262 -0.000001 0.113772 1.960660 -88.303896 71.377806 -0.000007 -0.669733 -0.113771 0.388341 0.036985 3.244757 88.125826 
0.000000 0.000000 0.000000 -0.000000 1.019410 -64.195801 -0.000000 -0.000000 1.456275 -0.000000 8.092676 -0.000000 -0.000000 0.000002 1.471446 -0.000000 -1.133463 -28.492821 0.625745 0.000000 0.917755 -0.000012 84.867272 0.000008 -0.629534 0.000001 0.940221 -0.000000 1.709737 44.646201 -0.000001 0.113772 1.960660 -88.303896 72.471599 -0.000007 -0.669733 -0.113771 0.388341 0.002693 3.279595 90.880250 
0.000000 0.000000 0.000000 -0.000000 1.019410 -61.729897 -0.000000 -0.000000 1.456275 0.000000 6.053557 0.000001 -0.000000 0.000002 1.471446 -0.000000 -1.133463 -27.399398 0.625745 0.000000 0.917755 -0.000025 86.794130 0.000016 -0.629534 0.000001 0.940221 -0.000000 1.709737 42.930546 -0.000001 0.113772 1.960660 -88.303896 73.143949 -0.000007 -0.669733 -0.113771 0.388340 -0.019206 3.300175 92.573440 
0.000000 0.000000 0.000000 -0.000000 1.019410 -60.184226 -0.000000 -0.000000 1.456275 0.000000 4.775399 -0.000001 -0.000000 0.000002 1.471446 -0.000000 -1.133462 -26.714022 0.625745 0.000000 0.917755 -0.000033 88.001913 0.000028 -0.629534 0.000001 0.940221 -0.000001 1.709736 41.855133 -0.000001 0.113772 1.960660 -88.303896 73.565386 -0.000006 -0.669733 -0.113771 0.388341 -0.033239 3.312744 93.634790 
0.000000 0.000000 0.000000 -0.000000 1.019410 -58.178288 -0.000000 -0.000000 1.456275 -0.000000 3.116626 -0.000001 -0.000000 0.000002 1.471446 -0.000001 -1.133462 -25.824549 0.625745 0.000000 0.917755 -0.000211 89.569359 0.000082 -0.629534 0.000001 0.940221 -0.000000 1.709736 40.459490 -0.000001 0.113772 1.960660 -88.303896 74.112327 -0.000005 -0.669733 -0.113771 0.388340 -0.051794 3.328664 95.012207 
0.000000 0.000000 0.000000 -0.000000 1.019410 -56.172664 -0.000000 -0.000000 1.456275 -0.000000 1.458121 -0.000001 -0.000000 0.000002 1.471446 -0.000001 -1.133462 -24.935221 0.625745 0.000000 0.917755 0.000069 91.136560 -0.000052 -0.629533 0.000001 0.940221 0.000001 1.709737 39.064068 -0.000001 0.113772 1.960660 -88.303896 74.659186 -0.000009 -0.669733 -0.113770 0.388340 -0.070726 3.344127 96.389446 
0.000000 0.000000 0.000000 -0.000000 1.019410 -54.627648 -0.000000 -0.000000 1.456275 0.000000 0.180500 -0.000001 -0.000000 0.000002 1.471446 -0.000001 -1.133462 -24.250126 0.625745 0.000000 0.917755 0.000042 92.343843 -0.000039 -0.629533 0.000001 0.940221 -0.000001 1.709737 37.989113 -0.000001 0.113772 1.960660 -88.303896 75.080445 -0.000012 -0.669733 -0.113771 0.388340 -0.085559 3.355735 97.450400 
0.000000 0.000000 0.000000 -0.000000 1.019410 -52.161096 -0.000000 0.000000 1.456275 -0.000000 -1.859157 0.000001 -0.000000 0.000002 1.471446 -0.000001 -1.133462 -23.156424 0.625745 0.000000 0.917755 0.000034 94.271200 -0.000002 -0.629533 0.000001 0.940221 -0.000001 1.709737 36.273004 -0.000001 0.113772 1.960661 -88.303903 75.752972 -0.000009 -0.669733 -0.113771 0.388340 -0.109684 3.373687 99.144205 
0.000000 0.000000 0.000000 -0.000000 1.019410 -48.149524 -0.000000 0.000000 1.456275 0.000000 -5.176435 -0.000001 -0.000000 0.000002 1.471446 -0.000000 -1.133462 -21.377613 0.625745 0.000000 0.917755 0.000018 97.405847 -0.000004 -0.629533 0.000001 0.940221 0.000000 1.709737 33.481936 -0.000001 0.113772 1.960660 -88.303896 76.846773 -0.000012 -0.669732 -0.113771 0.388340 -0.150020 3.401336 101.899059 
0.000000 0.000000 0.000000 -0.000000 1.019410 -45.648084 -0.000000 -0.000000 1.456275 0.000000 -7.244950 -0.000000 -0.000000 0.000002 1.471445 -0.000001 -1.133461 -20.268429 0.625745 0.000000 0.917755 0.000026 99.360476 -0.000006 -0.629533 0.000001 0.940221 -0.000001 1.709736 31.741556 -0.000001 0.113773 1.960660 -88.303882 77.528815 -0.000009 -0.669733 -0.113771 0.388339 -0.175826 3.417586 103.616920 
0.000000 0.000000 0.000000 -0.000000 1.019410 -44.137963 -0.000000 0.000000 1.456275 -0.000000 -8.493712 -0.000002 -0.000000 0.000002 1.471446 -0.000000 -1.133462 -19.598815 0.625745 0.000000 0.917755 0.000027 100.540487 -0.000005 -0.629533 0.000001 0.940221 -0.000001 1.709737 30.690871 -0.000000 0.113772 1.960660 -88.303903 77.940566 -0.000003 -0.669733 -0.113771 0.388340 -0.191640 3.427023 104.654023 
0.000000 0.000000 0.000000 -0.000000 1.019410 -42.264961 -0.000000 -0.000000 1.456275 0.000000 -10.042549 0.000003 -0.000000 0.000002 1.471446 -0.000000 -1.133462 -18.768293 0.625744 0.000000 0.917755 0.000023 102.004053 -0.000013 -0.629533 0.000001 0.940221 0.000001 1.709736 29.387722 -0.000001 0.113772 1.960661 -88.303909 78.451259 -0.000003 -0.669733 -0.113771 0.388340 -0.211486 3.438326 105.940339 
0.000000 0.000000 0.000000 -0.000000 1.019410 -40.126398 -0.000000 -0.000000 1.456275 0.000001 -11.810990 -0.000003 -0.000000 0.000002 1.471446 -0.000001 -1.133461 -17.820016 0.625745 0.000000 0.917755 0.000013 103.675134 -0.000017 -0.629534 0.000001 0.940221 -0.000000 1.709736 27.899806 -0.000001 0.113772 1.960661 -88.303909 79.034366 -0.000015 -0.669733 -0.113771 0.388340 -0.234450 3.450678 107.409062 
0.000000 0.000000 0.000000 -0.000000 1.019410 -38.085148 -0.000000 -0.000000 1.456275 -0.000000 -13.498956 0.000003 -0.000000 0.000002 1.471446 -0.000000 -1.133462 -16.914885 0.625745 0.000000 0.917755 0.000002 105.270174 0.000014 -0.629534 0.000001 0.940221 -0.000002 1.709737 26.479600 -0.000001 0.113772 1.960660 -88.303909 79.590931 -0.000001 -0.669734 -0.113771 0.388340 -0.256659 3.461924 108.810972 
0.000000 0.000000 0.000000 -0.000000 1.019410 -36.114830 -0.000000 0.000000 1.456275 -0.000001 -15.128266 -0.000000 -0.000000 0.000002 1.471445 0.000001 -1.133461 -16.041213 0.625745 0.000000 0.917755 0.000011 106.809767 0.000016 -0.629534 0.000001 0.940221 -0.000004 1.709737 25.108740 -0.000001 0.113772 1.960660 -88.303882 80.128153 -0.000011 -0.669733 -0.113771 0.388340 -0.278351 3.472257 110.164196 
0.000000 0.000000 0.000000 -0.000000 1.019410 -34.118127 -0.000000 -0.000000 1.456275 0.000000 -16.779398 0.000000 -0.000000 0.000002 1.471445 0.000001 -1.133461 -15.155838 0.625745 0.000000 0.917755 0.000006 108.369994 -0.000004 -0.629534 0.000001 0.940221 -0.000003 1.709737 23.719531 -0.000001 0.113772 1.960661 -88.303916 80.672573 -0.000017 -0.669733 -0.113771 0.388340 -0.300577 3.482199 111.535541 
0.000000 0.000000 0.000000 -0.000000 1.019410 -32.103265 -0.000000 -0.000000 1.456275 -0.000000 -18.445546 -0.000002 -0.000000 0.000002 1.471446 -0.000001 -1.133461 -14.262415 0.625745 0.000000 0.917754 0.000007 109.944414 -0.000005 -0.629533 0.000001 0.940221 0.000000 1.709736 22.317681 -0.000000 0.113772 1.960661 -88.303923 81.221946 -0.000004 -0.669734 -0.113771 0.388340 -0.323242 3.491698 112.919399 
0.000000 0.000000 0.000000 -0.000000 1.019410 -30.096617 -0.000000 0.000000 1.456275 0.000001 -20.104896 0.000000 -0.000000 0.000002 1.471445 -0.000000 -1.133460 -13.372630 0.625745 0.000000 0.917755 0.000007 111.512414 -0.000003 -0.629534 0.000001 0.940221 -0.000004 1.709737 20.921546 -0.000001 0.113772 1.960660 -88.303896 81.769085 -0.000011 -0.669733 -0.113771 0.388340 -0.346034 3.500612 114.297615 
